<?xml version="1.0" encoding="UTF-8" standalone="no"?>
<!-- Created with Inkscape (http://www.inkscape.org/) -->

<svg
   width="31.617706mm"
   height="31.617706mm"
   viewBox="0 0 31.617706 31.617706"
   version="1.1"
   id="svg5"
   xml:space="preserve"
   inkscape:version="1.2.1 (9c6d41e410, 2022-07-14)"
   sodipodi:docname="logo.svg"
   xmlns:inkscape="http://www.inkscape.org/namespaces/inkscape"
   xmlns:sodipodi="http://sodipodi.sourceforge.net/DTD/sodipodi-0.dtd"
   xmlns="http://www.w3.org/2000/svg"
   xmlns:svg="http://www.w3.org/2000/svg"><sodipodi:namedview
     id="namedview7"
     pagecolor="#ffffff"
     bordercolor="#000000"
     borderopacity="0.25"
     inkscape:showpageshadow="2"
     inkscape:pageopacity="0.0"
     inkscape:pagecheckerboard="0"
     inkscape:deskcolor="#d1d1d1"
     inkscape:document-units="mm"
     showgrid="false"
     inkscape:zoom="1.4142136"
     inkscape:cx="82.37794"
     inkscape:cy="37.830213"
     inkscape:window-width="1278"
     inkscape:window-height="1000"
     inkscape:window-x="1266"
     inkscape:window-y="0"
     inkscape:window-maximized="0"
     inkscape:current-layer="layer1" /><defs
     id="defs2" /><g
     inkscape:label="Layer 1"
     inkscape:groupmode="layer"
     id="layer1"
     transform="translate(10.405327,-24.608747)"><rect
       style="fill:#262b40;fill-opacity:1;stroke:none;stroke-width:0.264999;stroke-linecap:round;stroke-linejoin:round;paint-order:fill markers stroke"
       id="rect606"
       width="31.617706"
       height="31.617706"
       x="-10.405327"
       y="24.608747"
       ry="3.7041667"
       rx="3.7041667" /><path
       style="fill:#f8bd7a;fill-opacity:1;stroke:none;stroke-width:1"
       d="m 3.572088,26.342224 c -2.445755,0.99314 -0.916384,4.904502 1.568926,4.05429 2.812733,-0.962237 1.143874,-5.155882 -1.568926,-4.05429 M 2.234672,36.728946 H 2.499256 C 4.076119,32.098076 7.931151,30.279251 12.553422,30.643529 8.246879,26.481395 2.272878,32.112628 2.234672,36.728946 m -1.58750004,4.7625 c -2.96880996,-4.360095 -2.87504096,-7.504033 0,-11.90625 -4.86968196,1.886585 -5.36318296,10.313273 0,11.90625 M 14.938641,31.373171 c -2.622285,0.949325 -1.307835,4.90384 1.307571,4.120647 2.695046,-0.807085 1.279789,-5.057272 -1.307571,-4.120647 M -6.22792,33.496373 c -2.671471,0.913897 -1.395465,5.114184 1.314768,4.093289 2.582968,-0.972979 1.246187,-4.969378 -1.314768,-4.093289 m 13.489676,2.17424 v 0.264583 c 4.576762,-0.849709 8.74977,1.295241 10.318749,5.820833 2.372519,-5.707195 -6.579102,-8.211158 -10.318749,-6.085416 m -14.022917,3.439583 c 0.04625,5.586571 5.729367,8.904552 10.583333,6.085417 V 44.931029 C -1.738443,45.963354 -3.610106,42.8867 -6.761161,39.110196 m 16.933333,0.264583 c 2.915709,4.427167 2.915709,7.479083 0,11.906251 5.030258,-1.696244 5.112808,-10.273507 0,-11.906251 m 5.561277,3.904642 c -2.582333,0.941705 -1.314979,4.900163 1.307306,4.120647 2.738702,-0.814043 1.26365,-5.058278 -1.307306,-4.120647 m -7.148777,0.857858 c -1.146968,4.784196 -5.701347,6.260307 -10.054166,6.085417 v 0.264583 c 1.32325996,0.509853 2.778654,1.169459 4.233333,1.004359 3.092794,-0.350838 7.246038,-3.956632 5.820833,-7.354359 m -13.746903,1.235128 c -2.695125,0.807085 -1.279869,5.057193 1.307412,4.120568 2.622312,-0.949325 1.307915,-4.903761 -1.307412,-4.120568 M 6.207497,50.406846 C 3.590239,51.098202 4.545146,55.279942 7.257681,54.601815 9.866129,53.949617 8.89098,49.698027 6.207497,50.406846 Z"
       id="path179"
       inkscape:export-filename="..\logo.svg"
       inkscape:export-xdpi="96"
       inkscape:export-ydpi="96" /></g></svg>
